<svg xmlns="http://www.w3.org/2000/svg" width="26.215" height="17.696" viewBox="0 0 26.215 17.696">
  <path id="Icon_zocial-email" data-name="Icon zocial-email" d="M.072,20.2V5.635q0-.025.076-.48l8.57,7.331L.173,20.7a2.142,2.142,0,0,1-.1-.506ZM1.21,4.144a1.089,1.089,0,0,1,.43-.076H24.72a1.431,1.431,0,0,1,.455.076L16.58,11.5l-1.138.91-2.25,1.845-2.25-1.845L9.8,11.5Zm.025,17.544,8.62-8.266,3.337,2.7,3.337-2.7,8.62,8.266a1.214,1.214,0,0,1-.43.076H1.639a1.145,1.145,0,0,1-.4-.076Zm16.432-9.2,8.545-7.331a1.509,1.509,0,0,1,.076.48V20.2a1.938,1.938,0,0,1-.076.506Z" transform="translate(-0.072 -4.068)" fill="#fff"/>
</svg>
