<svg xmlns="http://www.w3.org/2000/svg" width="24.73" height="17.121" viewBox="0 0 24.73 17.121">
  <g id="Icon_ionic-ios-mail" data-name="Icon ionic-ios-mail" transform="translate(-3.375 -7.875)">
    <path id="Path_32" data-name="Path 32" d="M27.9,10.35l-6.4,6.516a.115.115,0,0,0,0,.166L25.983,21.8a.771.771,0,0,1,0,1.094.775.775,0,0,1-1.094,0l-4.459-4.75a.122.122,0,0,0-.172,0L19.17,19.25a4.786,4.786,0,0,1-3.412,1.439,4.882,4.882,0,0,1-3.484-1.48l-1.046-1.064a.122.122,0,0,0-.172,0L6.6,22.894a.775.775,0,0,1-1.094,0,.771.771,0,0,1,0-1.094L9.98,17.032a.127.127,0,0,0,0-.166l-6.4-6.516a.117.117,0,0,0-.2.083V23.471a1.908,1.908,0,0,0,1.9,1.9H26.2a1.908,1.908,0,0,0,1.9-1.9V10.434A.119.119,0,0,0,27.9,10.35Z" transform="translate(0 -0.377)" fill="#25b1d8"/>
    <path id="Path_33" data-name="Path 33" d="M15.872,18.76a3.232,3.232,0,0,0,2.324-.975l9.327-9.494a1.868,1.868,0,0,0-1.177-.416H5.4a1.856,1.856,0,0,0-1.177.416l9.327,9.494A3.232,3.232,0,0,0,15.872,18.76Z" transform="translate(-0.131)" fill="#25b1d8"/>
  </g>
</svg>
