<svg xmlns="http://www.w3.org/2000/svg" width="34" height="34" viewBox="0 0 34 34">
  <g id="Group_273" data-name="Group 273" transform="translate(-105 -229.89)">
    <rect id="Rectangle_100" data-name="Rectangle 100" width="19.922" height="21.484" transform="translate(112.083 235.114)" fill="#fff"/>
    <g id="Group_272" data-name="Group 272" transform="translate(105 229.89)">
      <path id="Path_2848" data-name="Path 2848" d="M122,229.89a17,17,0,1,0,17,17,17,17,0,0,0-17-17Zm8.529,13.007v2.3a8.03,8.03,0,0,1-4.915-1.67l.016,7.085a5.935,5.935,0,0,1-1.781,4.223,6.059,6.059,0,0,1-3.385,1.693,6.21,6.21,0,0,1-.914.068,6.08,6.08,0,0,1-4.3-1.76,5.957,5.957,0,0,1-.269-8.214,6.079,6.079,0,0,1,4.568-2.043,6.21,6.21,0,0,1,.914.068v3.219a2.866,2.866,0,1,0,1.971,2.723l0-4.745v-8.662h3.17a4.907,4.907,0,0,0,4.91,4.861h.009v.854Zm0,0" transform="translate(-105 -229.89)"/>
    </g>
  </g>
</svg>
