<svg xmlns="http://www.w3.org/2000/svg" xmlns:xlink="http://www.w3.org/1999/xlink" width="59" height="55" viewBox="0 0 59 55">
  <defs>
    <clipPath id="clip-path">
      <rect id="Rectangle_230" data-name="Rectangle 230" width="59" height="55" transform="translate(0 0)" fill="none"/>
    </clipPath>
  </defs>
  <g id="Group_763" data-name="Group 763" transform="translate(-41 -182.275)">
    <path id="Path_14183" data-name="Path 14183" d="M127.839,227.745a25.838,25.838,0,1,1-11.394-21.43,25.852,25.852,0,0,1,11.394,21.43Zm0,0" transform="translate(-31.128 -17.733)" fill="#5f9eeb"/>
    <path id="Path_14184" data-name="Path 14184" d="M314.343,227.742A25.843,25.843,0,0,1,288.5,253.586c-.582,0-1.161-.02-1.734-.057a25.845,25.845,0,0,0,0-51.573c.574-.037,1.153-.057,1.737-.057a25.84,25.84,0,0,1,25.844,25.844Zm0,0" transform="translate(-217.631 -17.729)" fill="#3a82d0"/>
    <path id="Path_14185" data-name="Path 14185" d="M426.436,261.9a25.868,25.868,0,0,1-1.053,7.325l-4.576-4.576a1.147,1.147,0,0,0-.615-.319l-5.211-.9a1.144,1.144,0,0,1-.615-.319l-.687-.687a1.144,1.144,0,0,1-.335-.809v-7.04a1.145,1.145,0,0,1,.335-.809l1.027-1.027a1.145,1.145,0,0,0,.335-.809V240.468A25.817,25.817,0,0,1,426.436,261.9Zm0,0" transform="translate(-329.725 -51.884)" fill="#a0d37d"/>
    <path id="Path_14186" data-name="Path 14186" d="M439.566,261.9a25.867,25.867,0,0,1-1.053,7.325l-2.809-2.809a25.874,25.874,0,0,0-7.533-23.138v-2.806A25.817,25.817,0,0,1,439.566,261.9Zm0,0" transform="translate(-342.855 -51.884)" fill="#84b75b"/>
    <path id="Path_14187" data-name="Path 14187" d="M117.39,301.91v5.073a25.844,25.844,0,0,1-33.656-39.046l1.991,5.518a1.131,1.131,0,0,0,1.065.748h7.734a1.13,1.13,0,0,1,.8.332l3.422,3.422a1.132,1.132,0,0,1,.332.8v13.122a1.132,1.132,0,0,0,.331.8l2.75,2.75a1.132,1.132,0,0,0,.8.331h8.281a1.133,1.133,0,0,1,.8.331l5.018,5.018a1.134,1.134,0,0,1,.331.8Zm0,0" transform="translate(-31.129 -76.209)" fill="#a0d37d"/>
    <path id="Path_14188" data-name="Path 14188" d="M303.978,582.038v3.093a25.727,25.727,0,0,1-15.389,5.083q-.872,0-1.731-.059a25.686,25.686,0,0,0,13.651-5.025,25.988,25.988,0,0,0,3.468-3.093Zm0,0" transform="translate(-217.717 -354.357)" fill="#84b75b"/>
    <path id="Path_14189" data-name="Path 14189" d="M318.944,206.987a5.086,5.086,0,1,1-5.086-5.085,5.071,5.071,0,0,1,5.086,5.085Zm0,0" transform="translate(-237.123 -17.733)" fill="#faaa3c"/>
    <path id="Path_14190" data-name="Path 14190" d="M321.041,235.874a5.087,5.087,0,0,1-9.549,0,5.087,5.087,0,0,1,9.549,0Zm0,0" transform="translate(-239.531 -44.866)" fill="#ed7a98"/>
    <path id="Path_14191" data-name="Path 14191" d="M334.3,192.2a2.806,2.806,0,1,1-2.806-2.806A2.805,2.805,0,0,1,334.3,192.2Zm0,0" transform="translate(-254.761 -6.653)" fill="#f8c298"/>
    <path id="Path_14192" data-name="Path 14192" d="M173.007,503.76a5.085,5.085,0,1,1-5.085-5.086,5.08,5.08,0,0,1,5.085,5.086Zm0,0" transform="translate(-107.89 -280.536)" fill="#627687"/>
    <path id="Path_14193" data-name="Path 14193" d="M175.1,532.651a5.087,5.087,0,1,1-4.775-3.331,5.088,5.088,0,0,1,4.775,3.331Zm0,0" transform="translate(-110.295 -307.674)" fill="#f1dd47"/>
    <path id="Path_14194" data-name="Path 14194" d="M188.365,488.973a2.806,2.806,0,1,1-2.806-2.806,2.806,2.806,0,0,1,2.806,2.806Zm0,0" transform="translate(-125.528 -269.46)" fill="#d88852"/>
    <path id="Path_14195" data-name="Path 14195" d="M58.671,356.644a5.085,5.085,0,1,1-5.085-5.086,5.067,5.067,0,0,1,5.085,5.086Zm0,0" transform="translate(-6.642 -150.259)" fill="#faaa3c"/>
    <path id="Path_14196" data-name="Path 14196" d="M60.768,385.53a5.087,5.087,0,1,1-4.774-3.331,5.087,5.087,0,0,1,4.774,3.331Zm0,0" transform="translate(-9.049 -177.393)" fill="#4fceb7"/>
    <path id="Path_14197" data-name="Path 14197" d="M74.029,341.852a2.806,2.806,0,1,1-2.806-2.806,2.806,2.806,0,0,1,2.806,2.806Zm0,0" transform="translate(-24.28 -139.179)" fill="#f8c298"/>
    <path id="Path_14198" data-name="Path 14198" d="M466.812,281.608a5.085,5.085,0,1,1-5.086-5.085,5.07,5.07,0,0,1,5.086,5.085Zm0,0" transform="translate(-368.066 -83.812)" fill="#faaa3c"/>
    <path id="Path_14199" data-name="Path 14199" d="M468.908,310.495a5.087,5.087,0,0,1-9.549,0,5.087,5.087,0,0,1,9.549,0Zm0,0" transform="translate(-370.473 -110.945)" fill="#4fceb7"/>
    <path id="Path_14200" data-name="Path 14200" d="M482.17,266.817a2.806,2.806,0,1,1-2.806-2.806,2.806,2.806,0,0,1,2.806,2.806Zm0,0" transform="translate(-385.704 -72.733)" fill="#f8c298"/>
    <path id="Path_14201" data-name="Path 14201" d="M270.731,420.1a.271.271,0,0,1-.08-.193v-6.535a.858.858,0,0,0-1.717,0v6.535a1.979,1.979,0,0,0,.583,1.408l2.75,2.749a1.976,1.976,0,0,0,1.407.583h2.555a.858.858,0,0,0,0-1.717h-2.555a.272.272,0,0,1-.193-.08Zm0,0" transform="translate(-201.844 -204.238)"/>
    <path id="Path_14202" data-name="Path 14202" d="M381.345,509.851a.859.859,0,0,0-1.2.16,25.117,25.117,0,0,1-3.6,3.8v-3.284a1.977,1.977,0,0,0-.583-1.408l-5.018-5.018a1.979,1.979,0,0,0-1.408-.583h-.842a.858.858,0,1,0,0,1.717h.842a.272.272,0,0,1,.194.08l5.018,5.018a.273.273,0,0,1,.08.193v4.633a24.938,24.938,0,0,1-4.835,2.711.859.859,0,1,0,.667,1.582,26.813,26.813,0,0,0,10.845-8.4.859.859,0,0,0-.16-1.2Zm0,0" transform="translate(-289.426 -284.822)"/>
    <path id="Path_14203" data-name="Path 14203" d="M77.154,267.141a25.008,25.008,0,0,1-31.171-21.95,5.94,5.94,0,0,0,6.757-4.549H53.4a.858.858,0,0,0,0-1.717h-.529a5.929,5.929,0,0,0-2.431-4.4,3.683,3.683,0,0,0-2.138-2.31,25.029,25.029,0,0,1,3.966-5.941l1.518,4.207a2,2,0,0,0,1.872,1.314h7.734a.272.272,0,0,1,.194.08l3.422,3.422a.273.273,0,0,1,.08.193v1.824a.858.858,0,0,0,1.717,0v-1.824a1.978,1.978,0,0,0-.583-1.408L64.8,230.659a1.977,1.977,0,0,0-1.407-.583H55.66a.274.274,0,0,1-.257-.181l-1.8-5a25.062,25.062,0,0,1,5.9-4.2.858.858,0,0,0-.782-1.528,26.835,26.835,0,0,0-12.194,12.8,3.673,3.673,0,0,0-3.076,2.548,5.939,5.939,0,0,0,.772,10.082,26.723,26.723,0,0,0,33.367,24.2.858.858,0,1,0-.431-1.662ZM51.107,238.6a6,6,0,0,0-1.159-.892,3.652,3.652,0,0,0,.438-.837,4.213,4.213,0,0,1,.721,1.729Zm-4.163-4.933A1.947,1.947,0,1,1,45,235.614a1.95,1.95,0,0,1,1.947-1.947ZM43.937,237.7a5.92,5.92,0,0,0-1.154.884,4.218,4.218,0,0,1,.72-1.716,3.656,3.656,0,0,0,.435.832Zm-.838,3.374a4.207,4.207,0,0,1,2.256-2.163,3.663,3.663,0,0,0,3.177,0,4.268,4.268,0,0,1,2.257,2.163,4.225,4.225,0,0,1-7.69,0Zm0,0" transform="translate(0 -32.941)"/>
    <g id="Group_762" data-name="Group 762" transform="translate(41 182.276)">
      <g id="Group_761" data-name="Group 761" transform="translate(0 0)" clip-path="url(#clip-path)">
        <path id="Path_14204" data-name="Path 14204" d="M161.28,491.983a5.953,5.953,0,0,0,5.739-4.4l.047,0h.687a.858.858,0,1,0,0-1.717h-.535a5.929,5.929,0,0,0-2.44-4.632,3.664,3.664,0,0,0-7,0,5.942,5.942,0,0,0,3.5,10.747Zm-3-7.561a6.007,6.007,0,0,0-1.158.893,4.231,4.231,0,0,1,.722-1.727,3.646,3.646,0,0,0,.436.834Zm3,5.844a2.52,2.52,0,1,1-1.59-4.637,3.659,3.659,0,0,0,3.177,0,2.52,2.52,0,1,1-1.588,4.637Zm4.163-4.955a6.033,6.033,0,0,0-1.158-.891,3.661,3.661,0,0,0,.437-.836,4.219,4.219,0,0,1,.721,1.726Zm-4.163-4.931a1.947,1.947,0,1,1-1.948,1.947,1.949,1.949,0,0,1,1.948-1.947Zm0,0" transform="translate(-142.249 -445.09)"/>
        <path id="Path_14205" data-name="Path 14205" d="M259.654,197.807a5.932,5.932,0,0,0-2.446-4.8,3.663,3.663,0,0,0-6.542-.946,26.874,26.874,0,0,0-9.347-6.632,5.967,5.967,0,0,0-1.037-.963,3.663,3.663,0,0,0-6.514-.987,27.1,27.1,0,0,0-2.853-.154,26.656,26.656,0,0,0-8.6,1.415.859.859,0,0,0,.553,1.626,24.946,24.946,0,0,1,8.045-1.323c.545,0,1.093.019,1.638.054a5.942,5.942,0,0,0,3.384,10.056.872.872,0,0,0-.012.138v.687a.858.858,0,0,0,1.717,0v-.687a.881.881,0,0,0-.012-.138,5.936,5.936,0,0,0,4.942-7.229q.992.525,1.934,1.138v11a.289.289,0,0,1-.084.2l-1.027,1.027a1.989,1.989,0,0,0-.587,1.416v1.726a.858.858,0,1,0,1.717,0V202.7a.284.284,0,0,1,.084-.2l1.027-1.027a1.99,1.99,0,0,0,.587-1.417v-9.776a25.144,25.144,0,0,1,3.415,3.2,5.94,5.94,0,0,0,2.979,10.169v.618a.858.858,0,1,0,1.717,0v-.549a5.932,5.932,0,0,0,.731-.125,25.058,25.058,0,0,1,.187,12.086l-3.513-3.513a2,2,0,0,0-1.077-.558l-5.21-.9a.284.284,0,0,1-.154-.08l-.687-.687a.288.288,0,0,1-.084-.2V209.3a.858.858,0,0,0-1.717,0v.438a1.99,1.99,0,0,0,.587,1.416l.687.687a1.99,1.99,0,0,0,1.077.558l5.21.9a.284.284,0,0,1,.154.08l4.206,4.206a24.806,24.806,0,0,1-1.942,4.526.859.859,0,0,0,1.5.832,26.783,26.783,0,0,0,2.382-19.986,5.945,5.945,0,0,0,2.982-5.149Zm-19.427-11a4.206,4.206,0,0,1,.721,1.726,6.013,6.013,0,0,0-1.158-.891,3.655,3.655,0,0,0,.437-.836Zm-3.442-3.2a1.947,1.947,0,1,1-1.947,1.947,1.949,1.949,0,0,1,1.947-1.947Zm-4.16,4.917a4.217,4.217,0,0,1,.719-1.712,3.644,3.644,0,0,0,.434.831,5.921,5.921,0,0,0-1.153.881Zm4.16,4.968a4.232,4.232,0,0,1-3.845-2.474,4.2,4.2,0,0,1,2.255-2.163,3.66,3.66,0,0,0,3.178,0,4.265,4.265,0,0,1,2.257,2.163,4.232,4.232,0,0,1-3.845,2.474Zm21.086,3.574a5.923,5.923,0,0,0-1.154-.881,3.658,3.658,0,0,0,.435-.833,4.21,4.21,0,0,1,.719,1.714Zm-4.161-4.918a1.947,1.947,0,1,1-1.947,1.947,1.95,1.95,0,0,1,1.947-1.947Zm-3.441,3.208a3.651,3.651,0,0,0,.434.83,5.9,5.9,0,0,0-1.154.883,4.247,4.247,0,0,1,.72-1.712Zm3.441,6.678a4.232,4.232,0,0,1-3.845-2.474,4.205,4.205,0,0,1,2.256-2.163,3.664,3.664,0,0,0,3.179,0,4.207,4.207,0,0,1,2.256,2.163,4.233,4.233,0,0,1-3.845,2.474Zm0,0" transform="translate(-201.049 -182.287)"/>
      </g>
    </g>
    <path id="Path_14206" data-name="Path 14206" d="M310.486,541.6h-1.193a.858.858,0,1,0,0,1.717h1.193a.858.858,0,0,0,0-1.717Zm0,0" transform="translate(-236.823 -318.552)"/>
    <path id="Path_14207" data-name="Path 14207" d="M278.026,541.6a.858.858,0,1,0,0,1.717h1.193a.858.858,0,1,0,0-1.717Zm0,0" transform="translate(-209.136 -318.552)"/>
    <path id="Path_14208" data-name="Path 14208" d="M339.7,537.15a.858.858,0,0,0,.858.858h.687a.858.858,0,0,0,.858-.858v-.687a1.516,1.516,0,0,0-2.4.687Zm0,0" transform="translate(-264.513 -313.239)"/>
    <path id="Path_14209" data-name="Path 14209" d="M346.561,324.325a.858.858,0,0,0,.858-.858V322.1a.858.858,0,1,0-1.717,0v1.363a.859.859,0,0,0,.858.858Zm0,0" transform="translate(-269.826 -123.415)"/>
    <path id="Path_14210" data-name="Path 14210" d="M345.7,430.647a.858.858,0,0,0,1.717,0v-1.363a.858.858,0,0,0-1.717,0Zm0,0" transform="translate(-269.826 -218.327)"/>
    <path id="Path_14211" data-name="Path 14211" d="M345.7,394.921a.858.858,0,1,0,1.717,0v-1.363a.858.858,0,0,0-1.717,0Zm0,0" transform="translate(-269.826 -186.691)"/>
    <path id="Path_14212" data-name="Path 14212" d="M345.7,359.194a.858.858,0,0,0,1.717,0V357.83a.858.858,0,0,0-1.717,0Zm0,0" transform="translate(-269.826 -155.053)"/>
    <path id="Path_14213" data-name="Path 14213" d="M345.7,466.374a.858.858,0,0,0,1.717,0V465.01a.858.858,0,0,0-1.717,0Zm0,0" transform="translate(-269.826 -249.965)"/>
    <path id="Path_14214" data-name="Path 14214" d="M345.7,502.1a.858.858,0,0,0,1.717,0v-1.363a.858.858,0,1,0-1.717,0Zm0,0" transform="translate(-269.826 -281.602)"/>
    <path id="Path_14215" data-name="Path 14215" d="M444.365,394.2a.858.858,0,1,0,0-1.717h-1.374a.858.858,0,1,0,0,1.717Zm0,0" transform="translate(-355.218 -186.5)"/>
    <path id="Path_14216" data-name="Path 14216" d="M406.991,394.2h1.374a.858.858,0,0,0,0-1.717h-1.374a.858.858,0,1,0,0,1.717Zm0,0" transform="translate(-323.339 -186.5)"/>
    <path id="Path_14217" data-name="Path 14217" d="M372.365,394.2a.858.858,0,1,0,0-1.717h-1.374a.858.858,0,1,0,0,1.717Zm0,0" transform="translate(-291.46 -186.5)"/>
    <path id="Path_14218" data-name="Path 14218" d="M480.365,394.2a.858.858,0,1,0,0-1.717h-1.374a.858.858,0,1,0,0,1.717Zm0,0" transform="translate(-387.098 -186.5)"/>
    <path id="Path_14219" data-name="Path 14219" d="M204.087,394.2a.858.858,0,1,0,0-1.717h-1.374a.858.858,0,0,0,0,1.717Zm0,0" transform="translate(-142.443 -186.5)"/>
    <path id="Path_14220" data-name="Path 14220" d="M276.087,392.484h-1.374a.858.858,0,1,0,0,1.717h1.374a.858.858,0,1,0,0-1.717Zm0,0" transform="translate(-206.202 -186.5)"/>
    <path id="Path_14221" data-name="Path 14221" d="M168.087,394.2a.858.858,0,1,0,0-1.717h-1.374a.858.858,0,1,0,0,1.717Zm0,0" transform="translate(-110.564 -186.5)"/>
    <path id="Path_14222" data-name="Path 14222" d="M240.087,394.2a.858.858,0,1,0,0-1.717h-1.374a.858.858,0,1,0,0,1.717Zm0,0" transform="translate(-174.323 -186.5)"/>
    <path id="Path_14223" data-name="Path 14223" d="M310.713,394.2h1.374a.858.858,0,1,0,0-1.717h-1.374a.858.858,0,0,0,0,1.717Zm0,0" transform="translate(-238.081 -186.5)"/>
  </g>
</svg>
