<svg xmlns="http://www.w3.org/2000/svg" xmlns:xlink="http://www.w3.org/1999/xlink" width="55" height="55" viewBox="0 0 55 55">
  <defs>
    <clipPath id="clip-path">
      <rect id="Rectangle_231" data-name="Rectangle 231" width="55" height="55" transform="translate(0 0)" fill="none"/>
    </clipPath>
  </defs>
  <g id="Group_766" data-name="Group 766" transform="translate(-105.698 -229.785)">
    <path id="Path_14224" data-name="Path 14224" d="M276.552,382.9a4.089,4.089,0,1,0-8.177,0v2.044a4.089,4.089,0,0,0,8.177,0Zm0,0" transform="translate(-139.265 -127.683)" fill="#bb6b57" fill-rule="evenodd"/>
    <path id="Path_14225" data-name="Path 14225" d="M257.1,440.843a4.074,4.074,0,0,1-6.079,0,7.177,7.177,0,0,0-4.115,6.472v12.694h14.309V447.315a7.177,7.177,0,0,0-4.115-6.472Zm0,0" transform="translate(-120.866 -180.851)" fill="#ff5a58" fill-rule="evenodd"/>
    <path id="Path_14226" data-name="Path 14226" d="M187.97,382.9a4.088,4.088,0,1,0-8.177,0v2.044a4.088,4.088,0,0,0,8.177,0Zm0,0" transform="translate(-63.336 -127.683)" fill="#cc9081" fill-rule="evenodd"/>
    <path id="Path_14227" data-name="Path 14227" d="M168.518,440.843a4.074,4.074,0,0,1-6.079,0,7.176,7.176,0,0,0-4.116,6.472v12.694h14.31V447.315a7.176,7.176,0,0,0-4.116-6.472Zm0,0" transform="translate(-44.934 -180.851)" fill="#66e0f7" fill-rule="evenodd"/>
    <path id="Path_14228" data-name="Path 14228" d="M365.138,382.9a4.088,4.088,0,1,0-8.177,0v2.044a4.088,4.088,0,0,0,8.177,0Zm0,0" transform="translate(-215.198 -127.683)" fill="#cc9081" fill-rule="evenodd"/>
    <path id="Path_14229" data-name="Path 14229" d="M345.687,440.843a4.074,4.074,0,0,1-6.079,0,7.176,7.176,0,0,0-4.116,6.472v12.694H349.8V447.315a7.177,7.177,0,0,0-4.115-6.472Zm0,0" transform="translate(-196.796 -180.851)" fill="#ff9346" fill-rule="evenodd"/>
    <path id="Path_14230" data-name="Path 14230" d="M239.531,238.727a4.77,4.77,0,0,0-6.711,0c-5.014,5,4.638,13.732,7.953,14.617,3.315-.885,12.967-9.62,7.953-14.617a4.769,4.769,0,0,0-6.71,0,1.735,1.735,0,0,1-2.486,0Zm0,0" transform="translate(-107.575 -6.422)" fill="#ff5a58" fill-rule="evenodd"/>
    <path id="Path_14231" data-name="Path 14231" d="M143.677,485.2a4.088,4.088,0,1,0-8.177,0v2.044a4.089,4.089,0,0,0,8.177,0V485.2Zm0,0" transform="translate(-25.37 -215.365)" fill="#bb6b57" fill-rule="evenodd"/>
    <path id="Path_14232" data-name="Path 14232" d="M124.226,543.133a4.074,4.074,0,0,1-6.079,0,7.178,7.178,0,0,0-4.116,6.473v2.572h14.31V549.6a7.177,7.177,0,0,0-4.115-6.472Zm0,0" transform="translate(-6.967 -268.529)" fill="#ffc144" fill-rule="evenodd"/>
    <path id="Path_14233" data-name="Path 14233" d="M232.263,485.2a4.088,4.088,0,1,0-8.177,0v2.044a4.088,4.088,0,0,0,8.177,0Zm0,0" transform="translate(-101.302 -215.365)" fill="#e5ae8c" fill-rule="evenodd"/>
    <path id="Path_14234" data-name="Path 14234" d="M212.811,543.133a4.073,4.073,0,0,1-6.079,0,7.178,7.178,0,0,0-4.116,6.473v2.572h14.31V549.6a7.176,7.176,0,0,0-4.116-6.472Zm0,0" transform="translate(-82.9 -268.529)" fill="#8481e2" fill-rule="evenodd"/>
    <path id="Path_14235" data-name="Path 14235" d="M320.845,485.2a4.088,4.088,0,1,0-8.177,0v2.044a4.089,4.089,0,0,0,8.177,0V485.2Zm0,0" transform="translate(-177.232 -215.365)" fill="#cc9081" fill-rule="evenodd"/>
    <path id="Path_14236" data-name="Path 14236" d="M301.394,543.133a4.074,4.074,0,0,1-6.079,0A7.178,7.178,0,0,0,291.2,549.6v2.572h14.31V549.6a7.177,7.177,0,0,0-4.115-6.472Zm0,0" transform="translate(-158.829 -268.529)" fill="#fff" fill-rule="evenodd"/>
    <path id="Path_14237" data-name="Path 14237" d="M409.431,485.2a4.088,4.088,0,1,0-8.177,0v2.044a4.088,4.088,0,0,0,8.177,0Zm0,0" transform="translate(-253.165 -215.365)" fill="#e5ae8c" fill-rule="evenodd"/>
    <path id="Path_14238" data-name="Path 14238" d="M389.979,543.133a4.074,4.074,0,0,1-6.079,0,7.178,7.178,0,0,0-4.115,6.473v2.572h14.31V549.6a7.176,7.176,0,0,0-4.116-6.472Zm0,0" transform="translate(-234.762 -268.529)" fill="#cbe558" fill-rule="evenodd"/>
    <g id="Group_765" data-name="Group 765" transform="translate(105.698 229.785)">
      <g id="Group_764" data-name="Group 764" transform="translate(0 0)" clip-path="url(#clip-path)">
        <path id="Path_14239" data-name="Path 14239" d="M157.338,395.56a5.117,5.117,0,0,0,.583-2.376V391.14a5.161,5.161,0,0,0-3.394-4.843,8.179,8.179,0,0,0-3.515-5.349,5.12,5.12,0,0,0,.583-2.375v-2.044a5.151,5.151,0,1,0-10.3,0v2.044a5.121,5.121,0,0,0,.583,2.375,8.241,8.241,0,0,0-1.761,1.588,8.252,8.252,0,0,0-1.756-1.586,5.121,5.121,0,0,0,.583-2.377v-2.044a5.151,5.151,0,1,0-10.3,0v2.044a5.115,5.115,0,0,0,.584,2.377,8.231,8.231,0,0,0-1.765,1.6,8.309,8.309,0,0,0-1.754-1.6,5.119,5.119,0,0,0,.584-2.378v-2.044a5.151,5.151,0,1,0-10.3,0v2.044a5.12,5.12,0,0,0,.583,2.375,8.186,8.186,0,0,0-3.515,5.35,5.16,5.16,0,0,0-3.394,4.842v2.044a5.117,5.117,0,0,0,.583,2.376,8.171,8.171,0,0,0-3.65,6.823v2.571a1.062,1.062,0,0,0,1.062,1.062h52.269a1.062,1.062,0,0,0,1.062-1.062v-2.571a8.169,8.169,0,0,0-3.65-6.823Zm-1.542-4.42v2.044a3.026,3.026,0,0,1-6.052,0V391.14a3.026,3.026,0,1,1,6.052,0Zm-3.523-5.127a5.158,5.158,0,0,0-4.653,5.127v2.044a5.119,5.119,0,0,0,.584,2.377,8.243,8.243,0,0,0-1.754,1.585,8.26,8.26,0,0,0-1.765-1.586,5.118,5.118,0,0,0,.583-2.376V391.14a5.157,5.157,0,0,0-4.653-5.127,6.2,6.2,0,0,1,2.623-3.413,5.134,5.134,0,0,0,6.412,0,6.2,6.2,0,0,1,2.623,3.413Zm-15.182,7.171V391.14a3.026,3.026,0,1,1,6.052,0v2.044a3.026,3.026,0,0,1-6.052,0Zm6.327-16.655a3.026,3.026,0,0,1,6.052,0v2.044a3.026,3.026,0,0,1-6.052,0Zm-12.653,0a3.026,3.026,0,0,1,6.052,0v2.044a3.026,3.026,0,0,1-6.052,0Zm-.18,6.071a5.133,5.133,0,0,0,6.412,0,6.128,6.128,0,0,1,1.915,1.886,8.188,8.188,0,0,0-.552,1.812,5.159,5.159,0,0,0-3.394,4.842v2.044a5.118,5.118,0,0,0,.583,2.376,8.249,8.249,0,0,0-1.764,1.585,8.23,8.23,0,0,0-1.754-1.584,5.116,5.116,0,0,0,.584-2.377V391.14a5.16,5.16,0,0,0-3.4-4.843,8.117,8.117,0,0,0-.556-1.8,6.118,6.118,0,0,1,1.922-1.9Zm-6.146,10.584V391.14a3.026,3.026,0,1,1,6.052,0v2.044a3.026,3.026,0,0,1-6.052,0Zm-6.327-16.655a3.026,3.026,0,0,1,6.052,0v2.044a3.026,3.026,0,0,1-6.052,0Zm-.18,6.071a5.134,5.134,0,0,0,6.412,0,6.2,6.2,0,0,1,2.623,3.413,5.158,5.158,0,0,0-4.654,5.127v2.044a5.116,5.116,0,0,0,.583,2.376,8.254,8.254,0,0,0-1.763,1.585,8.2,8.2,0,0,0-1.755-1.583,5.116,5.116,0,0,0,.584-2.377V391.14a5.157,5.157,0,0,0-4.653-5.127,6.2,6.2,0,0,1,2.623-3.413Zm-6.146,8.54a3.026,3.026,0,1,1,6.052,0v2.044a3.026,3.026,0,0,1-6.052,0Zm-3.067,11.243a6.063,6.063,0,0,1,2.886-5.173,5.136,5.136,0,0,0,6.413,0,6.114,6.114,0,0,1,1.913,1.883,8.209,8.209,0,0,0-.683,3.289v1.509H108.719Zm12.653,0a6.063,6.063,0,0,1,2.886-5.173,5.135,5.135,0,0,0,6.412,0,6.123,6.123,0,0,1,1.914,1.884,8.2,8.2,0,0,0-.684,3.289v1.509H121.372Zm12.653,0a6.063,6.063,0,0,1,2.886-5.173,5.136,5.136,0,0,0,6.414,0,6.063,6.063,0,0,1,2.886,5.173v1.509H134.025Zm24.838,1.509H148.334v-1.509a8.209,8.209,0,0,0-.683-3.289,6.133,6.133,0,0,1,1.913-1.884,5.136,5.136,0,0,0,6.413,0,6.06,6.06,0,0,1,2.885,5.172v1.51Zm0,0" transform="translate(-106.291 -351.093)"/>
        <path id="Path_14240" data-name="Path 14240" d="M225.816,238.921a1.062,1.062,0,0,0,.638-1.36,3.918,3.918,0,0,1,.738-4.474,3.7,3.7,0,0,1,5.21,0,2.794,2.794,0,0,0,3.985,0,3.7,3.7,0,0,1,5.211,0,3.738,3.738,0,0,1,.918,3.905c-1.065,3.979-6,8.042-8.12,8.844a10.672,10.672,0,0,1-2.335-1.4,1.062,1.062,0,1,0-1.277,1.7,10.864,10.864,0,0,0,3.336,1.844,1.071,1.071,0,0,0,.548,0,15.189,15.189,0,0,0,5.484-3.688c1.317-1.278,3.642-3.856,4.416-6.75a5.855,5.855,0,0,0-9.682-5.959.676.676,0,0,1-.985,0,5.825,5.825,0,0,0-8.21,0,6,6,0,0,0-1.236,6.7,1.063,1.063,0,0,0,1.36.638Zm0,0" transform="translate(-206.895 -229.814)"/>
      </g>
    </g>
    <path id="Path_14241" data-name="Path 14241" d="M245.492,307.245a1.062,1.062,0,1,0,1.063,1.062,1.062,1.062,0,0,0-1.063-1.062Zm0,0" transform="translate(-118.741 -66.335)"/>
  </g>
</svg>
