<svg xmlns="http://www.w3.org/2000/svg" width="54.545" height="54.545" viewBox="0 0 54.545 54.545">
  <g id="Group_770" data-name="Group 770" transform="translate(0.001 -0.001)">
    <path id="Path_14242" data-name="Path 14242" d="M66.057,269.761l-2.988-16.944-7.554,1.332,3.168,18.37Z" transform="translate(-49.602 -225.882)" fill="#bebebe"/>
    <path id="Path_14243" data-name="Path 14243" d="M14.872,139.412h0l-3.22.568-1.6-9.078a3.267,3.267,0,0,1,2.074-3.627l1.883-.7a1.178,1.178,0,0,0,.748-1.308l-.1-.554,2.961-.522.1.554a1.178,1.178,0,0,0,1.15.973l2.011.017a3.267,3.267,0,0,1,3.19,2.7l1.6,9.078-3.22.568h0Z" transform="translate(-8.936 -110.957)" fill="#78d2fa"/>
    <path id="Path_14244" data-name="Path 14244" d="M50.9,125.264l-.1-.554,2.961-.522.1.554a1.178,1.178,0,0,0,.844.93l-1.355,3.988-2.9-3.256A1.177,1.177,0,0,0,50.9,125.264Z" transform="translate(-45.076 -110.957)" fill="#ffcdac"/>
    <path id="Path_14245" data-name="Path 14245" d="M25.412,37.554h0A3.835,3.835,0,0,0,22.3,42l.16.909,1.847-.325a4.213,4.213,0,0,0,2.919-2.045h0l2.788,1.039-.16-.909A3.835,3.835,0,0,0,25.412,37.554Z" transform="translate(-19.873 -33.499)" fill="#878791"/>
    <path id="Path_14246" data-name="Path 14246" d="M26.147,68.077A4.21,4.21,0,0,0,27.8,67.4l1.265-1.368,2.085.777.7.262.116.66a3.835,3.835,0,0,1-3.111,4.443h0a3.835,3.835,0,0,1-4.443-3.111L24.3,68.4Z" transform="translate(-21.712 -58.996)" fill="#ffcdac"/>
    <path id="Path_14247" data-name="Path 14247" d="M357.533,269.761l2.988-16.944,7.554,1.332-3.168,18.37Z" transform="translate(-319.444 -225.882)" fill="#bebebe"/>
    <path id="Path_14248" data-name="Path 14248" d="M365.733,139.411h0l3.22.568,1.6-9.078a3.267,3.267,0,0,0-2.074-3.627l-1.883-.7a1.178,1.178,0,0,1-.748-1.308l.1-.554-2.961-.522-.1.554a1.178,1.178,0,0,1-1.15.973l-2.011.017a3.267,3.267,0,0,0-3.19,2.7l-1.6,9.078,3.22.568h0Z" transform="translate(-317.124 -110.956)" fill="#f5b955"/>
    <g id="Group_767" data-name="Group 767" transform="translate(23.863 34.198)">
      <rect id="Rectangle_232" data-name="Rectangle 232" width="3.409" height="8.427" fill="#ffcdac"/>
      <rect id="Rectangle_233" data-name="Rectangle 233" width="3.409" height="8.427" transform="translate(3.423)" fill="#ffcdac"/>
    </g>
    <path id="Path_14249" data-name="Path 14249" d="M210.06,233.44h5.51L213.823,223h-7.359l-1.84,10.44h5.51" transform="translate(-182.825 -199.242)" fill="#78d2fa"/>
    <path id="Path_14250" data-name="Path 14250" d="M212.424,23.363V15.9a5.9,5.9,0,0,0-5.9-5.9h0a5.9,5.9,0,0,0-5.9,5.9v7.463h11.8Z" transform="translate(-179.253 -8.934)" fill="#f5b955"/>
    <path id="Path_14251" data-name="Path 14251" d="M235.267,70v1.721a2.807,2.807,0,0,1-2.807,2.807h0a2.807,2.807,0,0,1-2.807-2.807V70Z" transform="translate(-205.189 -62.542)" fill="#ffcdac"/>
    <path id="Path_14252" data-name="Path 14252" d="M62.415,410.957a37.062,37.062,0,0,0-52.414,0Z" transform="translate(-8.936 -357.477)" fill="#a5dc69"/>
    <path id="Path_14253" data-name="Path 14253" d="M202.532,115.668l-1.925-.356a1.147,1.147,0,0,1-.938-1.128v-.548h-2.853v.548a1.147,1.147,0,0,1-.938,1.128l-1.925.356a3.181,3.181,0,0,0-2.6,3.128v8.977h2.816l.438-2.486h7.359l.416,2.486h2.756V118.8A3.181,3.181,0,0,0,202.532,115.668Z" transform="translate(-170.965 -101.529)" fill="#ff8c8c"/>
    <g id="Group_768" data-name="Group 768" transform="translate(24.992 12.107)">
      <path id="Path_14254" data-name="Path 14254" d="M236.878,118.4l2.281-3.1a1.147,1.147,0,0,1-.851-1.108v-.548h-2.853v.548a1.147,1.147,0,0,1-.859,1.109Z" transform="translate(-234.597 -113.637)" fill="#ffcdac"/>
      <path id="Path_14255" data-name="Path 14255" d="M425.457,125.264l.1-.554-2.961-.522-.1.554a1.178,1.178,0,0,1-.844.93l1.355,3.988,2.9-3.256A1.177,1.177,0,0,1,425.457,125.264Z" transform="translate(-401.725 -123.064)" fill="#ffcdac"/>
    </g>
    <path id="Path_14256" data-name="Path 14256" d="M421.4,37.554h0A3.835,3.835,0,0,1,424.509,42l-.16.909L422.5,42.58a4.213,4.213,0,0,1-2.919-2.045h0L416.8,41.574l.16-.909A3.835,3.835,0,0,1,421.4,37.554Z" transform="translate(-372.393 -33.499)" fill="#878791"/>
    <path id="Path_14257" data-name="Path 14257" d="M421.031,68.077a4.21,4.21,0,0,1-1.654-.677l-1.265-1.368-2.086.777-.7.262-.116.66a3.835,3.835,0,0,0,3.111,4.443h0a3.835,3.835,0,0,0,4.443-3.111l.116-.66Z" transform="translate(-370.922 -58.996)" fill="#ffcdac"/>
    <g id="Group_769" data-name="Group 769" transform="translate(44.422 7.7)">
      <path id="Path_14258" data-name="Path 14258" d="M417.027,72.272h0l-.046.261Z" transform="translate(-416.981 -72.272)" fill="#f5c86e"/>
      <path id="Path_14259" data-name="Path 14259" d="M488.016,84.957l.032-.183h0Z" transform="translate(-480.449 -83.443)" fill="#f5c86e"/>
    </g>
    <path id="Path_14260" data-name="Path 14260" d="M131.665,324.3a1.065,1.065,0,0,0-.863,1.235l.008.043a1.066,1.066,0,0,0,1.048.88,1.077,1.077,0,0,0,.187-.017,1.065,1.065,0,0,0,.863-1.235l-.008-.043A1.065,1.065,0,0,0,131.665,324.3Z" transform="translate(-116.853 -289.738)"/>
    <path id="Path_14261" data-name="Path 14261" d="M46.521,46.765l2.945-17.077,2.177.384a1.053,1.053,0,0,0,.185.016,1.065,1.065,0,0,0,1.049-.88l1.6-9.078a4.332,4.332,0,0,0-2.751-4.811l-1.883-.7a.111.111,0,0,1-.033-.019h0a.112.112,0,0,1-.037-.1l.094-.534a4.937,4.937,0,0,0,1.04-.568,5.021,5.021,0,0,0,2-3.23l.166-.943h0l.079-.451a5.01,5.01,0,0,0-.825-3.785,4.9,4.9,0,0,0-8.812,2l-.094.535h0L43.236,8.55a4.9,4.9,0,0,0,1.573,4.513l-.083.486a.2.2,0,0,1-.2.168l-1.933-.006a4.332,4.332,0,0,0-4.23,3.58l-1.6,9.078a1.065,1.065,0,0,0,.864,1.234l2.182.385L37.186,42.863a37.853,37.853,0,0,0-5.426-1.041V35.263h.966a1.087,1.087,0,0,0,.508-.118,1.068,1.068,0,0,0,.561-1.123l-1.124-6.713h1.5a1.065,1.065,0,0,0,1.065-1.065V17.267a4.238,4.238,0,0,0-1-2.74c0-.032.005-.065.005-.1V7.071a6.965,6.965,0,1,0-13.929-.106v7.463a1.088,1.088,0,0,0,.006.109,4.238,4.238,0,0,0-.994,2.729v8.977a1.065,1.065,0,0,0,1.065,1.065h1.5l.048,0-1.182,6.707a1.067,1.067,0,0,0,.473,1.082,1.108,1.108,0,0,0,.605.169h.97v6.557a37.856,37.856,0,0,0-5.44,1.043l-.544-3.084a1.065,1.065,0,0,0-2.1.37L15.3,43.48q-.819.271-1.629.579L10.958,28.652l1.679-.3.552,3.128a1.066,1.066,0,0,0,1.048.881,1.078,1.078,0,0,0,.181-.015,1.1,1.1,0,0,0,.862-1.275l-.544-3.088,2.182-.385a1.065,1.065,0,0,0,.864-1.234l-1.6-9.078a4.332,4.332,0,0,0-4.23-3.58L10,13.694a.19.19,0,0,1-.186-.157l-.084-.474A4.9,4.9,0,0,0,11.307,8.55l-.182-1.034h0l-.079-.45A5.013,5.013,0,0,0,9.024,3.823,4.9,4.9,0,0,0,2.185,5.028a5.013,5.013,0,0,0-.792,3.739l.079.449h0l.182,1.034a4.9,4.9,0,0,0,3.02,3.7l.095.538a.119.119,0,0,1-.071.125l-1.883.7A4.332,4.332,0,0,0,.066,20.131l1.6,9.078a1.065,1.065,0,0,0,1.234.864l2.177-.384L8.023,46.766A38.1,38.1,0,0,0,.312,52.727a1.065,1.065,0,0,0,1.507,1.507,36,36,0,0,1,50.907,0,1.065,1.065,0,0,0,1.507-1.507A38.093,38.093,0,0,0,46.521,46.765ZM42.885,44.9l2.8-15.874,1.683.3L44.545,45.687Q43.726,45.272,42.885,44.9Zm4.7-32.767A2.773,2.773,0,0,1,45.335,8.92l.011-.06,1.448-.539a5.266,5.266,0,0,0,3.131,1.809l.769.136A2.773,2.773,0,0,1,47.581,12.128ZM48.82,5.1a2.77,2.77,0,0,1,2.268,3.068l-.794-.14A3.141,3.141,0,0,1,48.113,6.5a1.065,1.065,0,0,0-1.295-.466l-.814.3A2.774,2.774,0,0,1,48.82,5.1Zm-1.609,9.123q.221.039.442.058a2.235,2.235,0,0,0,.184,1.145L46.761,16.64l-.52-1.53a2.233,2.233,0,0,0,.536-.982C46.919,14.167,47.064,14.2,47.211,14.227Zm-6.75,3.433a2.2,2.2,0,0,1,2.15-1.819l1.623-.013,1.1,3.231a1.065,1.065,0,0,0,1.8.365l2.365-2.66,1.48.552a2.2,2.2,0,0,1,1.4,2.445l-1.416,8.028-1.122-.2.972-5.512a1.065,1.065,0,0,0-2.1-.37l-.972,5.512-2.738-.483h0l-2.738-.483.972-5.512a1.065,1.065,0,1,0-2.1-.37l-.972,5.512-1.122-.2Zm1.446,10.7,1.679.3L40.87,44.058q-.809-.309-1.629-.579ZM23.068,33.133l1.464-8.309H30.1l1.391,8.309H23.068Zm6.561,8.427H28.351v-6.3h1.278ZM27.272,2.132a4.839,4.839,0,0,1,4.834,4.834v6.2c-.113-.031-.228-.058-.346-.079l-1.925-.356a.082.082,0,0,1-.067-.08v-.519a3.864,3.864,0,0,0,1.375-2.956V7.459a1.065,1.065,0,0,0-1.065-1.065H24.465A1.065,1.065,0,0,0,23.4,7.459V9.179a3.865,3.865,0,0,0,1.385,2.965v.511a.082.082,0,0,1-.067.08l-1.925.356c-.121.022-.239.05-.355.082V6.966A4.839,4.839,0,0,1,27.272,2.132Zm1.741,7.048a1.741,1.741,0,1,1-3.483,0V8.524h3.483v.655Zm-2.13,3.852q.192.019.389.019a3.877,3.877,0,0,0,.4-.02,2.207,2.207,0,0,0,.406.943l-.8,1.094-.8-1.088A2.2,2.2,0,0,0,26.883,13.032Zm-5,12.147H21.45V17.267a2.116,2.116,0,0,1,1.731-2.081l1.35-.25L26.414,17.5a1.065,1.065,0,0,0,1.717,0l1.883-2.563,1.358.251A2.116,2.116,0,0,1,33.1,17.267v7.911h-.433a1.063,1.063,0,0,0-.345.058l-.262-1.567V19.775a1.065,1.065,0,1,0-2.131,0v2.918H24.718V19.775a1.065,1.065,0,1,0-2.131,0v3.808l-.3,1.678A1.062,1.062,0,0,0,21.883,25.179Zm4.324,10.085v6.3H24.928v-6.3ZM8.274,15.079l-.6,1.559L6.693,15.46a2.235,2.235,0,0,0,.2-1.176q.22-.019.442-.057c.148-.026.292-.059.434-.1A2.234,2.234,0,0,0,8.274,15.079ZM3.936,6.243a2.774,2.774,0,0,1,2.27-1.181A2.779,2.779,0,0,1,8.539,6.341l-.814-.3A1.066,1.066,0,0,0,6.431,6.5,3.141,3.141,0,0,1,4.25,8.032l-.794.14A2.749,2.749,0,0,1,3.936,6.243Zm-.085,4.023.769-.136A5.266,5.266,0,0,0,7.751,8.321L9.2,8.86l.011.06a2.77,2.77,0,0,1-5.359,1.346ZM2.164,19.761a2.2,2.2,0,0,1,1.4-2.444l1.452-.542L7.187,19.4A1.065,1.065,0,0,0,9,19.1l1.269-3.274,1.663.014a2.2,2.2,0,0,1,2.15,1.819L15.5,25.688l-1.122.2L13.4,20.373a1.065,1.065,0,0,0-2.1.37l.972,5.512-2.738.483h0L6.8,27.221l-.972-5.512a1.065,1.065,0,0,0-2.1.37L4.7,27.591l-1.122.2Zm5.012,9.558,1.683-.3,2.8,15.874q-.841.377-1.659.792Z" transform="translate(0)"/>
    <path id="Path_14262" data-name="Path 14262" d="M246.9,430.1h0a1.066,1.066,0,1,0-.006,2.131h.006a1.066,1.066,0,1,0,0-2.131Z" transform="translate(-219.622 -384.279)"/>
    <path id="Path_14263" data-name="Path 14263" d="M303.788,436.818a33.494,33.494,0,0,0-10.212-3.26,1.065,1.065,0,0,0-.316,2.107,31.369,31.369,0,0,1,9.564,3.053,1.065,1.065,0,1,0,.965-1.9Z" transform="translate(-261.207 -387.357)"/>
  </g>
</svg>
