<svg xmlns="http://www.w3.org/2000/svg" width="54.684" height="54.545" viewBox="0 0 54.684 54.545">
  <g id="Group_775" data-name="Group 775" transform="translate(-0.002 -0.651)">
    <g id="Group_771" data-name="Group 771" transform="translate(37.624 24.349)">
      <path id="Path_14264" data-name="Path 14264" d="M352.258,249.867l2.65-8.139a1.451,1.451,0,0,1,1.615-.983h0a1.451,1.451,0,0,1,1.151,1.863l-.877,2.825Z" transform="translate(-352.258 -238.783)" fill="#f7b081"/>
      <path id="Path_14265" data-name="Path 14265" d="M395.69,228.273a1.558,1.558,0,0,1,2.2.026h0l1.277-3.948a1.39,1.39,0,0,0-.976-1.774h0a1.39,1.39,0,0,0-1.675.934l-1.761,5.672h0Z" transform="translate(-390.219 -222.533)" fill="#f7b081"/>
    </g>
    <path id="Path_14266" data-name="Path 14266" d="M414.161,229.031h0l1.277-3.947a1.39,1.39,0,0,0-.838-1.731l-1.629,5.212A1.552,1.552,0,0,1,414.161,229.031Z" transform="translate(-368.862 -198.916)" fill="#db9975"/>
    <path id="Path_14267" data-name="Path 14267" d="M374.164,208.926h0a1.558,1.558,0,0,1,.105,2.058l-6.078,7.65,3.291-2.522a18.386,18.386,0,0,0,6.431-9.326l1.235-4.132a1.407,1.407,0,0,0-2.686-.836l-2.3,7.108Z" transform="translate(-328.865 -178.812)" fill="#f7b081"/>
    <path id="Path_14268" data-name="Path 14268" d="M304.386,193.184a1.614,1.614,0,0,0-1.778,1.1l-1.687,5.644a18.386,18.386,0,0,1-6.431,9.326l-3.291,2.522,6.078-7.65a1.558,1.558,0,0,0-.105-2.058h0a1.558,1.558,0,0,0-2.2-.026l-5.471,5.344a11.991,11.991,0,0,0-5.091,4.038,15.586,15.586,0,0,0-2.413,6.619v8.306H291.2v-6.1l6.176-5.043c3.329-2.718,4.522-7.647,5.788-11.754l2.525-8.194A1.615,1.615,0,0,0,304.386,193.184Z" transform="translate(-251.873 -171.954)" fill="#ffc89f"/>
    <g id="Group_772" data-name="Group 772" transform="translate(37.368 21.213)">
      <path id="Path_14269" data-name="Path 14269" d="M369.041,272.452c-.036-.027-.074-.053-.112-.077l-.045-.027a1.59,1.59,0,0,0-.146-.074l-.014-.007a1.538,1.538,0,0,0-.178-.064l-.013,0a1.561,1.561,0,0,0-.169-.038l-.022,0a1.573,1.573,0,0,0-.568.018A1.558,1.558,0,0,1,367.69,274l-4.633,5.832a1.831,1.831,0,0,0,.193,2.486l6.078-7.65a1.558,1.558,0,0,0-.105-2.058h0a1.56,1.56,0,0,0-.139-.125Z" transform="translate(-361.293 -263.707)" fill="#ffb98a"/>
      <path id="Path_14270" data-name="Path 14270" d="M365.008,193.187a1.614,1.614,0,0,0-.553.013,1.606,1.606,0,0,1,.216,1.392l-2.525,8.194c-1.266,4.107-2.459,8.716-5.788,11.435l-6.5,5.043v7.09h1.958v-6.1L358,215.207c3.329-2.718,4.522-7.647,5.788-11.754l2.525-8.194A1.614,1.614,0,0,0,365.008,193.187Z" transform="translate(-349.863 -193.169)" fill="#ffb98a"/>
    </g>
    <g id="Group_773" data-name="Group 773" transform="translate(4.344 22.033)">
      <path id="Path_14271" data-name="Path 14271" d="M376.54,246.029l.877-2.825a1.451,1.451,0,0,0-.942-1.811l-2.114,6.764Z" transform="translate(-338.721 -237.062)" fill="#db9975"/>
      <path id="Path_14272" data-name="Path 14272" d="M432.5,203.792a1.406,1.406,0,0,0-.748-1.674l-3.83,12.129a18.385,18.385,0,0,0,3.342-6.323Z" transform="translate(-386.561 -201.982)" fill="#db9975"/>
      <path id="Path_14273" data-name="Path 14273" d="M113.893,249.867l-2.65-8.139a1.451,1.451,0,0,0-1.615-.983h0a1.451,1.451,0,0,0-1.151,1.863l.877,2.825Z" transform="translate(-101.174 -236.467)" fill="#db9975"/>
      <path id="Path_14274" data-name="Path 14274" d="M78.847,228.273a1.558,1.558,0,0,0-2.2.026h0l-1.277-3.948a1.39,1.39,0,0,1,.976-1.774h0a1.39,1.39,0,0,1,1.675.934l1.761,5.672h0Z" transform="translate(-71.599 -220.216)" fill="#db9975"/>
      <path id="Path_14275" data-name="Path 14275" d="M45.7,208.927h0a1.558,1.558,0,0,0-.105,2.058l6.078,7.65-3.291-2.522a18.386,18.386,0,0,1-6.431-9.326l-1.235-4.132a1.407,1.407,0,0,1,2.686-.836l2.3,7.108Z" transform="translate(-40.657 -200.845)" fill="#db9975"/>
    </g>
    <path id="Path_14276" data-name="Path 14276" d="M8.852,193.184a1.615,1.615,0,0,1,1.778,1.1l1.687,5.644a18.386,18.386,0,0,0,6.431,9.326l3.291,2.522-6.078-7.65a1.558,1.558,0,0,1,.105-2.058h0a1.558,1.558,0,0,1,2.2-.026l5.471,5.344a11.99,11.99,0,0,1,5.091,4.038,15.588,15.588,0,0,1,2.413,6.619v8.306H22.039v-6.1L15.863,215.2c-3.329-2.718-4.522-7.647-5.788-11.754L7.55,195.256A1.614,1.614,0,0,1,8.852,193.184Z" transform="translate(-6.678 -171.954)" fill="#ffc89f"/>
    <path id="Path_14277" data-name="Path 14277" d="M98.069,281.949a11.991,11.991,0,0,0-5.091-4.038l-5.471-5.344a1.558,1.558,0,0,0-2.2.026h0a1.552,1.552,0,0,0-.309.457,1.549,1.549,0,0,1,.618.37l5.471,5.344a11.991,11.991,0,0,1,5.091,4.038,15.588,15.588,0,0,1,2.413,6.619v7.454h1.894v-8.306A15.584,15.584,0,0,0,98.069,281.949Z" transform="translate(-75.915 -242.478)" fill="#ffb98a"/>
    <g id="Group_774" data-name="Group 774" transform="translate(5.372 22.032)">
      <path id="Path_14278" data-name="Path 14278" d="M120.492,247.334l2.372,2.317h.15l-2.58-7.923a1.451,1.451,0,0,0-1.615-.983h0c-.04.007-.079.016-.118.026Z" transform="translate(-111.394 -236.467)" fill="#f7b081"/>
      <path id="Path_14279" data-name="Path 14279" d="M86.873,227.843a1.551,1.551,0,0,1,.964.438l.932.91h0l-1.761-5.672a1.389,1.389,0,0,0-1.643-.94Z" transform="translate(-81.617 -220.225)" fill="#f7b081"/>
      <path id="Path_14280" data-name="Path 14280" d="M60.269,218.633l-6.078-7.65a1.558,1.558,0,0,1,.105-2.058h0L52,201.817a1.407,1.407,0,0,0-1.585-.952c-.045.008-.09.019-.133.031l3.608,12.21a18.379,18.379,0,0,0,3.09,3Z" transform="translate(-50.28 -200.843)" fill="#f7b081"/>
    </g>
    <circle id="Ellipse_49" data-name="Ellipse 49" cx="14.586" cy="14.586" r="14.586" transform="translate(12.645 1.45)" fill="#ffd039"/>
    <path id="Path_14281" data-name="Path 14281" d="M243.8,8.135c-.449,0-.893.021-1.332.061a14.585,14.585,0,0,1,0,29.049c.439.04.883.061,1.332.061a14.585,14.585,0,0,0,0-29.171Z" transform="translate(-216.573 -6.685)" fill="#ffae47"/>
    <path id="Path_14282" data-name="Path 14282" d="M185.262,102.484a1.833,1.833,0,0,1-1.3-.537L179.8,97.78a1.832,1.832,0,0,1,2.591-2.591l2.872,2.872,7.039-7.039a1.832,1.832,0,1,1,2.591,2.591l-8.334,8.334A1.832,1.832,0,0,1,185.262,102.484Z" transform="translate(-160.115 -80.24)" fill="#00b76c"/>
    <path id="Path_14283" data-name="Path 14283" d="M178.58,96.611a2.614,2.614,0,0,0,1.861-.771l8.334-8.334a2.631,2.631,0,0,0-3.721-3.721l-6.474,6.474-2.307-2.307a2.631,2.631,0,0,0-3.721,3.721l4.167,4.167A2.614,2.614,0,0,0,178.58,96.611Zm-4.9-7.529a1.034,1.034,0,0,1,1.461,0l2.872,2.872a.8.8,0,0,0,1.13,0l7.039-7.039a1.033,1.033,0,1,1,1.461,1.461L179.31,94.71a1.033,1.033,0,0,1-1.461,0l-4.167-4.167A1.034,1.034,0,0,1,173.683,89.082Z" transform="translate(-153.433 -73.568)"/>
    <path id="Path_14284" data-name="Path 14284" d="M141.668,16.036A15.384,15.384,0,0,0,116.013,4.581a.8.8,0,0,0,1.067,1.19,13.773,13.773,0,1,1-2.017,2.252.8.8,0,0,0-1.3-.93,15.385,15.385,0,1,0,27.9,8.943Z" transform="translate(-99.053)"/>
    <path id="Path_14285" data-name="Path 14285" d="M299.507,186.81a2.412,2.412,0,0,0-4.132.077,2.2,2.2,0,0,0-3.346,1.14l-.375,1.158a2.181,2.181,0,0,0-3.3,1.172l-.245.79a2.25,2.25,0,0,0-3.4,1.167l-2.537,7.791a13.133,13.133,0,0,0-3.156,2.034.8.8,0,1,0,1.048,1.206,11.146,11.146,0,0,1,3.029-1.895l.009,0,.049-.021.025-.011.051-.029.02-.012c.018-.011.036-.024.053-.037l.014-.01c.021-.017.042-.035.062-.055l1.992-1.946,3.479-3.4a.758.758,0,0,1,.539-.216c.025,0,.051,0,.075,0a.759.759,0,0,1,.51,1.227l-6.078,7.65a.8.8,0,0,0,.056,1.057c.019.019.038.037.058.053l.021.016.041.031.026.016.039.023.029.015.039.018.031.012.039.014.032.01.04.01.033.007.041.006.033,0,.043,0h.03a.793.793,0,0,0,.111-.009l.02,0a.809.809,0,0,0,.108-.026l.019-.006a.805.805,0,0,0,.105-.045l.013-.007a.81.81,0,0,0,.1-.067l3.291-2.522a19.086,19.086,0,0,0,5.11-5.918q.271-.49.514-1,.162-.338.311-.683a19.409,19.409,0,0,0,.775-2.132l1.684-5.634a.815.815,0,0,1,1.553.5l-2.525,8.194c-.13.422-.259.853-.39,1.289-1.1,3.655-2.341,7.8-5.139,10.082l-6.176,5.043a.8.8,0,0,0-.294.619v5.3H276.11V211.4a15.239,15.239,0,0,1,1.93-5.69.8.8,0,0,0-1.36-.839,16.632,16.632,0,0,0-2.164,6.409c0,.025,0,.051,0,.076v8.306a.8.8,0,0,0,.8.8h9.206a.8.8,0,0,0,.8-.8V213.94l5.882-4.8c3.178-2.595,4.5-6.986,5.659-10.86q.195-.649.387-1.278l2.525-8.194A2.412,2.412,0,0,0,299.507,186.81Zm-8.915,3.624a.591.591,0,0,1,.415.754l-.976,3.017q-.079-.023-.16-.04l-.021,0c-.061-.012-.122-.022-.184-.029l-.054-.006c-.069-.007-.138-.012-.208-.013h-.029c-.07,0-.14,0-.209.01l-.034,0c-.066.007-.132.016-.2.029l-.035.007-.058.012.154-.5h0l.884-2.846A.59.59,0,0,1,290.591,190.434Zm-4.366,2.375a.648.648,0,0,1,.618-.451.661.661,0,0,1,.108.009.652.652,0,0,1,.517.837l-.817,2.632-2.07,2.022Zm6.885,1.292a17.54,17.54,0,0,1-1.48,3.056l0-.007c.013-.043.024-.087.035-.13,0-.015.007-.031.01-.046q.01-.047.019-.1c0-.017.006-.034.008-.051s.009-.064.012-.1c0-.015,0-.031.005-.046,0-.045.007-.09.008-.135,0,0,0-.006,0-.009,0-.046,0-.093,0-.139,0-.015,0-.031,0-.046,0-.032,0-.065-.007-.1,0-.017,0-.034-.005-.051s-.008-.064-.013-.1c0-.015,0-.031-.007-.046q-.011-.066-.026-.131l0-.009c-.011-.046-.023-.091-.037-.137,0-.015-.009-.029-.014-.044-.01-.031-.021-.062-.032-.093l-.018-.048c-.012-.031-.025-.061-.038-.091l-.019-.042q-.029-.062-.062-.123l0-.006c-.021-.037-.042-.074-.065-.111l1.148-3.549h0l1.022-3.161a.61.61,0,0,1,.684-.411.608.608,0,0,1,.476.772l-1.236,4.132Q293.309,193.564,293.11,194.1Z" transform="translate(-245.191 -165.267)"/>
    <path id="Path_14286" data-name="Path 14286" d="M22.807,204.276a12.851,12.851,0,0,0-5.1-4.174l-2.537-7.79a2.25,2.25,0,0,0-3.4-1.167l-.245-.79a2.181,2.181,0,0,0-3.3-1.172l-.375-1.158a2.2,2.2,0,0,0-3.346-1.14,2.413,2.413,0,0,0-4.4,1.918L2.634,197c.129.418.257.845.387,1.278.991,3.3,2.114,7.043,4.423,9.665a.8.8,0,0,0,1.2-1.056c-2.078-2.36-3.148-5.924-4.092-9.068-.131-.436-.26-.867-.39-1.289l-2.525-8.194a.815.815,0,0,1,.657-1.046.812.812,0,0,1,.9.548l.449,1.5h0l1.235,4.132a19.061,19.061,0,0,0,6.411,9.5q.148.118.3.234l3.291,2.522a.811.811,0,0,0,.105.068l.012.007a.79.79,0,0,0,.107.046l.018.006a.782.782,0,0,0,.109.027l.018,0a.8.8,0,0,0,.113.009h.026l.047,0,.029,0,.045-.007.03-.006.043-.011.03-.009.042-.015.029-.012.041-.019.027-.014.04-.024.025-.016.042-.031.02-.015q.03-.025.058-.053a.8.8,0,0,0,.056-1.057l-6.078-7.65a.763.763,0,0,1-.077-.118.728.728,0,0,1-.034-.075.75.75,0,0,1-.045-.172.759.759,0,0,1,.208-.638c.012-.013.026-.024.038-.036l.017-.016.023-.018c.013-.01.025-.02.038-.029l.011-.007a.76.76,0,0,1,.53-.114l.023,0,.027.006.045.011.014,0,.057.02.005,0c.021.009.042.018.062.028l.005,0c.02.011.04.022.059.034l.016.011.045.032c.02.016.039.033.057.05l5.471,5.344a.8.8,0,0,0,.062.054l.017.012c.016.012.033.025.05.035l.021.012.049.028.026.012.048.02.01,0A11.193,11.193,0,0,1,21.5,205.2a14.851,14.851,0,0,1,2.268,6.2v7.464H16.16v-5.3a.8.8,0,0,0-.294-.619L11.039,209a.8.8,0,1,0-1.011,1.238l4.533,3.7v5.724a.8.8,0,0,0,.8.8h9.206a.8.8,0,0,0,.8-.8v-8.306q0-.038,0-.076A16.274,16.274,0,0,0,22.807,204.276Zm-10.33-11.611a.652.652,0,0,1,1.175.141l1.644,5.049-.639-.624-1.431-1.4-.817-2.632A.645.645,0,0,1,12.477,192.665Zm-3.561-1.946a.585.585,0,0,1,.37-.288.59.59,0,0,1,.712.4l1.038,3.343c-.03-.007-.061-.012-.091-.018l-.01,0c-.071-.013-.143-.023-.215-.029l-.027,0c-.072-.006-.144-.009-.218-.009s-.139.006-.208.013l-.054.006c-.062.008-.123.017-.184.029l-.021,0q-.081.017-.16.04l-.976-3.017A.584.584,0,0,1,8.916,190.719Zm-3.683-2.334a.607.607,0,0,1,.516-.289.61.61,0,0,1,.579.42l2.17,6.71c-.023.036-.044.073-.064.111l0,.007c-.022.04-.042.081-.062.123l-.019.042q-.02.046-.039.092l-.018.047c-.012.031-.022.063-.033.095,0,.014-.009.028-.014.042-.014.046-.026.091-.037.137v.005c-.01.045-.019.089-.027.134,0,.015,0,.03-.007.045-.005.033-.01.065-.013.1,0,.017,0,.033,0,.05q0,.049-.007.1c0,.015,0,.03,0,.044,0,.047,0,.095,0,.142v0c0,.046,0,.093.009.139,0,.015,0,.03,0,.045,0,.033.008.065.013.1,0,.017.005.033.008.05q.008.049.019.1c0,.015.006.03.01.045.011.045.022.09.036.134v0a17.5,17.5,0,0,1-1.274-2.524c-.1-.256-.2-.516-.293-.778-.1-.278-.192-.557-.277-.841l-1.236-4.132A.6.6,0,0,1,5.234,188.385Z" transform="translate(0 -165.265)"/>
  </g>
</svg>
