<svg xmlns="http://www.w3.org/2000/svg" width="23.294" height="23.294" viewBox="0 0 23.294 23.294">
  <path id="Icon_material-local-phone" data-name="Icon material-local-phone" d="M9.185,14.581a19.6,19.6,0,0,0,8.528,8.528l2.847-2.847a1.287,1.287,0,0,1,1.32-.311,14.762,14.762,0,0,0,4.62.738,1.3,1.3,0,0,1,1.294,1.294V26.5A1.3,1.3,0,0,1,26.5,27.794a22,22,0,0,1-22-22A1.3,1.3,0,0,1,5.794,4.5h4.529a1.3,1.3,0,0,1,1.294,1.294,14.7,14.7,0,0,0,.738,4.62,1.3,1.3,0,0,1-.324,1.32L9.185,14.581Z" transform="translate(-4.5 -4.5)" fill="#fff"/>
</svg>
